<?xml version="1.0" encoding="iso-8859-1"?>
<!-- Generator: Adobe Illustrator 18.0.0, SVG Export Plug-In . SVG Version: 6.00 Build 0)  -->
<!DOCTYPE svg PUBLIC "-//W3C//DTD SVG 1.1//EN" "http://www.w3.org/Graphics/SVG/1.1/DTD/svg11.dtd">
<svg version="1.1" id="Capa_1" xmlns="http://www.w3.org/2000/svg" xmlns:xlink="http://www.w3.org/1999/xlink" x="0px" y="0px"
	 viewBox="0 0 465.495 465.495" style="enable-background:new 0 0 465.495 465.495;" xml:space="preserve">
<g>
	<path d="M443.995,51.006H21.5c-11.855,0-21.5,9.645-21.5,21.5v320.483c0,11.855,9.645,21.5,21.5,21.5h422.495
		c11.855,0,21.5-9.645,21.5-21.5V72.506C465.495,60.651,455.851,51.006,443.995,51.006z M23,74.006h341.483v317.483H23V74.006z
		 M442.495,391.489h-55.012V74.006h55.012V391.489z"/>
	<path d="M57.053,222.341h21.365v86.14c0,6.351,5.148,11.5,11.5,11.5h51.229c6.352,0,11.5-5.149,11.5-11.5v-86.14h21.363
		c4.434,0,8.472-2.548,10.38-6.55c1.908-4.002,1.347-8.744-1.444-12.189l-58.476-72.176c-2.184-2.695-5.467-4.261-8.936-4.261
		c-3.469,0-6.752,1.565-8.936,4.26l-58.481,72.176c-2.791,3.445-3.352,8.187-1.445,12.189
		C48.58,219.792,52.619,222.341,57.053,222.341z M115.533,156.932l34.358,42.409h-8.745c-6.352,0-11.5,5.149-11.5,11.5v86.14
		h-28.229v-86.14c0-6.351-5.148-11.5-11.5-11.5h-8.746L115.533,156.932z"/>
	<path d="M212.494,222.341h21.365v86.14c0,6.351,5.148,11.5,11.5,11.5h51.228c6.352,0,11.5-5.149,11.5-11.5v-86.14h21.363
		c4.434,0,8.472-2.548,10.38-6.55c1.908-4.002,1.347-8.744-1.444-12.189l-58.477-72.176c-2.184-2.695-5.467-4.261-8.936-4.261
		c-3.469,0-6.752,1.565-8.936,4.26l-58.48,72.176c-2.791,3.445-3.352,8.187-1.445,12.189
		C204.021,219.792,208.061,222.341,212.494,222.341z M270.975,156.932l34.358,42.409h-8.745c-6.352,0-11.5,5.149-11.5,11.5v86.14
		h-28.228v-86.14c0-6.351-5.148-11.5-11.5-11.5h-8.746L270.975,156.932z"/>
	<path d="M329.053,344.341h-272c-6.352,0-11.5,5.149-11.5,11.5s5.148,11.5,11.5,11.5h272c6.352,0,11.5-5.149,11.5-11.5
		S335.404,344.341,329.053,344.341z"/>
</g>
<g>
</g>
<g>
</g>
<g>
</g>
<g>
</g>
<g>
</g>
<g>
</g>
<g>
</g>
<g>
</g>
<g>
</g>
<g>
</g>
<g>
</g>
<g>
</g>
<g>
</g>
<g>
</g>
<g>
</g>
</svg>
