<?xml version="1.0" encoding="iso-8859-1"?>
<!-- Generator: Adobe Illustrator 17.1.0, SVG Export Plug-In . SVG Version: 6.00 Build 0)  -->
<!DOCTYPE svg PUBLIC "-//W3C//DTD SVG 1.1//EN" "http://www.w3.org/Graphics/SVG/1.1/DTD/svg11.dtd">
<svg version="1.1" id="Capa_1" xmlns="http://www.w3.org/2000/svg" xmlns:xlink="http://www.w3.org/1999/xlink" x="0px" y="0px"
	 viewBox="0 0 183.833 183.833" style="enable-background:new 0 0 183.833 183.833;" xml:space="preserve">
<path style="fill:#000002;" d="M175.583,183.833H8.25c-1.381,0-2.5-1.119-2.5-2.5V2.5c0-1.381,1.119-2.5,2.5-2.5h167.334
	c1.381,0,2.5,1.119,2.5,2.5v178.833C178.083,182.714,176.964,183.833,175.583,183.833z M147.083,178.833h26V5H10.75v173.833h26
	V28.666c0-1.381,1.119-2.5,2.5-2.5h105.334c1.381,0,2.5,1.119,2.5,2.5V178.833z M94.417,178.833h47.667V31.166H94.417V178.833z
	 M41.75,178.833h47.667V31.166H41.75V178.833z M31.805,124.166H16.597c-1.381,0-2.5-1.119-2.5-2.5V95.333c0-1.381,1.119-2.5,2.5-2.5
	h15.208c1.381,0,2.5,1.119,2.5,2.5v26.333C34.305,123.047,33.186,124.166,31.805,124.166z M19.097,119.166h10.208V97.833H19.097
	V119.166z M24.202,116.333c-1.381,0-2.5-1.119-2.5-2.5v-0.224c0-1.381,1.119-2.5,2.5-2.5s2.5,1.119,2.5,2.5v0.224
	C26.702,115.214,25.583,116.333,24.202,116.333z M24.202,105.547c-1.381,0-2.5-1.119-2.5-2.5v-0.214c0-1.381,1.119-2.5,2.5-2.5
	s2.5,1.119,2.5,2.5v0.214C26.702,104.428,25.583,105.547,24.202,105.547z M145.133,17.875h-0.146c-1.381,0-2.5-1.119-2.5-2.5
	s1.119-2.5,2.5-2.5h0.146c1.381,0,2.5,1.119,2.5,2.5S146.514,17.875,145.133,17.875z M131.285,17.875h-0.184
	c-1.381,0-2.5-1.119-2.5-2.5s1.119-2.5,2.5-2.5h0.184c1.381,0,2.5,1.119,2.5,2.5S132.666,17.875,131.285,17.875z M118.118,17.875
	h-0.139c-1.381,0-2.5-1.119-2.5-2.5s1.119-2.5,2.5-2.5h0.139c1.381,0,2.5,1.119,2.5,2.5S119.499,17.875,118.118,17.875z
	 M105.014,17.875h-0.156c-1.381,0-2.5-1.119-2.5-2.5s1.119-2.5,2.5-2.5h0.156c1.381,0,2.5,1.119,2.5,2.5
	S106.395,17.875,105.014,17.875z M91.917,17.875h-0.181c-1.381,0-2.5-1.119-2.5-2.5s1.119-2.5,2.5-2.5h0.181
	c1.381,0,2.5,1.119,2.5,2.5S93.297,17.875,91.917,17.875z M78.805,17.875h-0.19c-1.381,0-2.5-1.119-2.5-2.5s1.119-2.5,2.5-2.5h0.19
	c1.381,0,2.5,1.119,2.5,2.5S80.186,17.875,78.805,17.875z M65.722,17.875h-0.229c-1.381,0-2.5-1.119-2.5-2.5s1.119-2.5,2.5-2.5
	h0.229c1.381,0,2.5,1.119,2.5,2.5S67.103,17.875,65.722,17.875z M52.597,17.875h-0.226c-1.381,0-2.5-1.119-2.5-2.5
	s1.119-2.5,2.5-2.5h0.226c1.381,0,2.5,1.119,2.5,2.5S53.978,17.875,52.597,17.875z M39.555,17.875H39.25c-1.381,0-2.5-1.119-2.5-2.5
	s1.119-2.5,2.5-2.5h0.306c1.381,0,2.5,1.119,2.5,2.5S40.936,17.875,39.555,17.875z"/>
<g>
</g>
<g>
</g>
<g>
</g>
<g>
</g>
<g>
</g>
<g>
</g>
<g>
</g>
<g>
</g>
<g>
</g>
<g>
</g>
<g>
</g>
<g>
</g>
<g>
</g>
<g>
</g>
<g>
</g>
</svg>
