<?xml version="1.0" encoding="iso-8859-1"?>
<!-- Generator: Adobe Illustrator 18.0.0, SVG Export Plug-In . SVG Version: 6.00 Build 0)  -->
<!DOCTYPE svg PUBLIC "-//W3C//DTD SVG 1.1//EN" "http://www.w3.org/Graphics/SVG/1.1/DTD/svg11.dtd">
<svg version="1.1" id="Capa_1" xmlns="http://www.w3.org/2000/svg" xmlns:xlink="http://www.w3.org/1999/xlink" x="0px" y="0px"
	 viewBox="0 0 490.663 490.663" style="enable-background:new 0 0 490.663 490.663;" xml:space="preserve">
<g>
	<path d="M383.227,315.566c-2.348,0-4.25,1.903-4.25,4.25v31.498c0,2.347,1.902,4.25,4.25,4.25c2.348,0,4.25-1.903,4.25-4.25
		v-31.498C387.477,317.469,385.575,315.566,383.227,315.566z"/>
	<path d="M266.804,103.084c7.774,0,15.292-1.724,22.344-5.123c12.398-5.977,21.728-16.424,26.269-29.419
		c4.541-12.994,3.75-26.979-2.228-39.377C304.649,11.448,286.416,0,266.736,0c-7.775,0-15.291,1.723-22.341,5.122
		c-12.399,5.977-21.729,16.425-26.27,29.419c-4.541,12.994-3.75,26.979,2.227,39.377
		C228.893,91.636,247.127,103.084,266.804,103.084z M226.149,37.345c3.792-10.85,11.583-19.575,21.937-24.565
		c5.89-2.84,12.165-4.279,18.65-4.279c16.436,0,31.665,9.56,38.797,24.356c4.991,10.354,5.651,22.031,1.859,32.882
		c-3.792,10.851-11.582,19.575-21.935,24.565c-5.891,2.84-12.166,4.28-18.652,4.28c-16.435,0-31.663-9.561-38.795-24.358
		C223.018,59.873,222.357,48.195,226.149,37.345z"/>
	<path d="M239.149,172.149c-0.775-1.25-2.141-2.01-3.612-2.01H140.18l14.206-26.226c0.713-1.317,0.681-2.913-0.086-4.199
		c-0.767-1.287-2.154-2.075-3.651-2.075h-30.422c-1.535,0-2.951,0.828-3.704,2.167l-17.064,30.334h-27.29
		c-2.347,0-4.25,1.903-4.25,4.25v145.445c0,2.347,1.903,4.25,4.25,4.25h57.168c0.006,0,0.011,0.001,0.017,0.001
		c0.005,0,0.009-0.001,0.014-0.001h34.003c1.614,0,3.089-0.914,3.807-2.361l72.166-145.445
		C239.998,174.961,239.924,173.399,239.149,172.149z M122.713,146.138h20.801l-13,24.001h-21.302L122.713,146.138z M160.735,315.584
		H136.21l39.174-78.951c1.043-2.103,0.185-4.653-1.918-5.696c-2.105-1.045-4.653-0.185-5.696,1.918l-41.048,82.729H76.419V178.639
		H194.67l-11.924,24.031c-1.043,2.102-0.185,4.653,1.918,5.696c0.607,0.301,1.251,0.444,1.886,0.444
		c1.564,0,3.068-0.866,3.811-2.362l13.798-27.809h24.525L160.735,315.584z"/>
	<path d="M417.69,244.913l-58.168-120.66c-5.885-12.21-16.171-21.396-28.965-25.868c-12.792-4.471-26.563-3.693-38.774,2.193
		c-12.21,5.886-21.397,16.174-25.867,28.968c-4.472,12.794-3.692,26.565,2.193,38.774l0.068,0.141L222.03,240.01
		c-7.683,11.913-4.242,27.858,7.672,35.545c4.166,2.687,8.978,4.107,13.916,4.107c8.785,0,16.871-4.403,21.63-11.779l29.103-45.124
		l31.923,66.222c3.806,7.897,9.577,14.613,16.738,19.588l0.002,148.073c0,18.759,15.263,34.021,34.022,34.021
		c18.76,0,34.021-15.262,34.021-34.021V299.325C423.716,284.05,426.35,262.878,417.69,244.913z M258.106,263.275
		c-3.186,4.939-8.603,7.887-14.488,7.887c-3.3,0-6.52-0.951-9.309-2.75c-7.976-5.146-10.28-15.82-5.137-23.795l67.085-104.014
		c3.185-4.937,8.6-7.885,14.485-7.885c3.302,0,6.522,0.951,9.311,2.75c3.864,2.493,6.526,6.34,7.496,10.834
		c0.97,4.494,0.131,9.097-2.362,12.962L258.106,263.275z M333.93,285.29l-34.179-70.903l32.58-50.515
		c3.724-5.772,4.976-12.649,3.528-19.362c-1.448-6.713-5.425-12.46-11.197-16.184c-4.167-2.687-8.98-4.107-13.919-4.107
		c-8.786,0-16.871,4.403-21.628,11.778l-15.328,23.764c-3.006-8.871-2.988-18.428,0.151-27.41
		c3.723-10.651,11.37-19.215,21.535-24.115c10.166-4.9,21.63-5.548,32.279-1.826c10.649,3.723,19.213,11.37,24.112,21.535
		l58.168,120.66c5.339,11.077,5.521,23.62,0.975,34.548c-0.941-17.924-15.818-32.217-33.973-32.217
		c-18.761,0-34.024,15.262-34.024,34.022l0,12.71C339.276,294.148,336.187,289.971,333.93,285.29z M402.557,456.642
		c0,10.353-6.201,19.28-15.08,23.279v-95.607c0-2.347-1.902-4.25-4.25-4.25c-2.348,0-4.25,1.903-4.25,4.25v97.769
		c-0.642,0.048-1.288,0.081-1.941,0.081c-14.073,0-25.522-11.449-25.522-25.521l-0.002-171.684c0-14.073,11.45-25.522,25.524-25.522
		c14.072,0,25.521,11.449,25.521,25.522V456.642z"/>
</g>
<g>
</g>
<g>
</g>
<g>
</g>
<g>
</g>
<g>
</g>
<g>
</g>
<g>
</g>
<g>
</g>
<g>
</g>
<g>
</g>
<g>
</g>
<g>
</g>
<g>
</g>
<g>
</g>
<g>
</g>
</svg>
