<?xml version="1.0" encoding="iso-8859-1"?>
<!-- Generator: Adobe Illustrator 18.0.0, SVG Export Plug-In . SVG Version: 6.00 Build 0)  -->
<!DOCTYPE svg PUBLIC "-//W3C//DTD SVG 1.1//EN" "http://www.w3.org/Graphics/SVG/1.1/DTD/svg11.dtd">
<svg version="1.1" id="Capa_1" xmlns="http://www.w3.org/2000/svg" xmlns:xlink="http://www.w3.org/1999/xlink" x="0px" y="0px"
	 viewBox="0 0 297 297" style="enable-background:new 0 0 297 297;" xml:space="preserve">
<g>
	<path d="M154.035,93.756l-10.296,6.006c-2.85,1.663-5.183,5.723-5.183,9.023v51.756c2.87-2.197,6.445-3.519,10.33-3.519h10.33
		V96.733C159.218,93.433,156.886,92.094,154.035,93.756z"/>
	<path d="M9.951,160.159c1.099,0.631,2.524,0.626,3.622-0.013l202.13-117.909c1.027-0.599,2.195-0.915,3.384-0.915h65.388
		c1.993,0,3.616-1.622,3.616-3.616V3.616c0-1.994-1.622-3.616-3.616-3.616h-67.406c-0.638,0-1.266,0.169-1.818,0.489L9.934,119.806
		c-1.11,0.645-1.799,1.843-1.799,3.126v34.09C8.135,158.314,8.831,159.515,9.951,160.159z"/>
	<path d="M85.854,133.529l-10.296,6.006c-2.85,1.663-5.183,5.723-5.183,9.023v46.074c2.87-2.197,6.445-3.519,10.33-3.519h10.33
		v-54.608C91.037,133.206,88.705,131.866,85.854,133.529z"/>
	<path d="M221.828,56.979l-9.519,3.806c-3.064,1.225-5.571,4.928-5.571,8.228v57.438c2.87-2.197,6.445-3.519,10.33-3.519h10.33
		V60.751C227.399,57.451,224.892,55.754,221.828,56.979z"/>
	<path d="M285.249,136.362h-68.181c-1.993,0-3.616,1.622-3.616,3.615v23.76c0,3.708-3.006,6.715-6.715,6.715h-57.85
		c-1.993,0-3.616,1.622-3.616,3.616v23.76c0,3.708-3.006,6.715-6.715,6.715h-57.85c-1.993,0-3.616,1.622-3.616,3.616v23.76
		c0,3.708-3.006,6.715-6.715,6.715h-57.85c-1.993,0-3.616,1.622-3.616,3.615v51.136c0,1.994,1.622,3.616,3.616,3.616h272.724
		c1.993,0,3.616-1.622,3.616-3.616V139.977C288.865,137.984,287.243,136.362,285.249,136.362z"/>
</g>
<g>
</g>
<g>
</g>
<g>
</g>
<g>
</g>
<g>
</g>
<g>
</g>
<g>
</g>
<g>
</g>
<g>
</g>
<g>
</g>
<g>
</g>
<g>
</g>
<g>
</g>
<g>
</g>
<g>
</g>
</svg>
