<?xml version="1.0" encoding="iso-8859-1"?>
<!-- Generator: Adobe Illustrator 18.1.1, SVG Export Plug-In . SVG Version: 6.00 Build 0)  -->
<svg version="1.1" id="Capa_1" xmlns="http://www.w3.org/2000/svg" xmlns:xlink="http://www.w3.org/1999/xlink" x="0px" y="0px"
	 viewBox="0 0 353.277 353.277" style="enable-background:new 0 0 353.277 353.277;" xml:space="preserve">
<g>
	<g id="Layer_5_36_">
		<g>
			<path d="M310.925,137.295h0.003l34.328-0.014c2.936,0,5.524-1.463,6.925-3.91s1.349-5.42-0.139-7.951l-17.155-29.186
				c-1.47-2.502-4.014-3.996-6.807-3.996s-5.338,1.494-6.809,4l-17.137,29.201c-1.484,2.531-1.534,5.502-0.133,7.949
				C305.404,135.834,307.992,137.295,310.925,137.295z"/>
			<path d="M352.246,172.364c-1.403-2.428-3.982-3.877-6.975-3.877l-34.335,0.295c-2.932,0.027-5.506,1.512-6.885,3.969
				c-1.378,2.457-1.303,5.428,0.205,7.949l17.396,29.043c1.477,2.467,4.01,3.939,6.775,3.939c2.819,0,5.376-1.516,6.839-4.055
				l16.893-29.34C353.618,177.756,353.651,174.793,352.246,172.364z"/>
			<path d="M247.738,1.498H30.5c-13.785,0-25,11.215-25,25v254.686c0,13.786,11.215,25,25,25h217.237c13.785,0,25-11.214,25-25
				V26.498C272.738,12.713,261.523,1.498,247.738,1.498z M19.5,281.184V26.498c0-6.066,4.935-11,11-11c0,0,70.527,0,94.426,0
				c7,0,7.193,6.361,7.193,6.361v259.665c0,0,2.057,10.659-10.443,10.659c-22.794,0-91.176,0-91.176,0
				C24.435,292.184,19.5,287.25,19.5,281.184z M258.738,281.184c0,6.066-4.935,11-11,11c0,0-69.046,0-92.062,0
				c-10.75,0-9.557-10.158-9.557-10.158V21.357c0,0-0.193-5.858,6.807-5.858c23.703,0,94.812,0,94.812,0c6.065,0,11,4.934,11,11
				V281.184z"/>
			<g>
				<path d="M265.738,351.778H12.5c-6.903,0-12.5-5.596-12.5-12.5c0-6.902,5.597-12.5,12.5-12.5h253.237
					c6.903,0,12.5,5.598,12.5,12.5C278.238,346.182,272.641,351.778,265.738,351.778z"/>
			</g>
		</g>
	</g>
</g>
<g>
</g>
<g>
</g>
<g>
</g>
<g>
</g>
<g>
</g>
<g>
</g>
<g>
</g>
<g>
</g>
<g>
</g>
<g>
</g>
<g>
</g>
<g>
</g>
<g>
</g>
<g>
</g>
<g>
</g>
</svg>
