<?xml version="1.0" encoding="iso-8859-1"?>
<!-- Generator: Adobe Illustrator 18.0.0, SVG Export Plug-In . SVG Version: 6.00 Build 0)  -->
<!DOCTYPE svg PUBLIC "-//W3C//DTD SVG 1.1//EN" "http://www.w3.org/Graphics/SVG/1.1/DTD/svg11.dtd">
<svg version="1.1" id="Capa_1" xmlns="http://www.w3.org/2000/svg" xmlns:xlink="http://www.w3.org/1999/xlink" x="0px" y="0px"
	 viewBox="0 0 191.326 191.326" style="enable-background:new 0 0 191.326 191.326;" xml:space="preserve">
<g>
	<path d="M95.663,21.834c-3.313,0-6,2.687-6,6v157.492c0,3.313,2.687,6,6,6s6-2.687,6-6V27.834
		C101.663,24.521,98.977,21.834,95.663,21.834z"/>
	<path d="M160.32,41.796c-15.639,0-28.361,12.723-28.361,28.361v43.872c0,3.313,2.687,6,6,6h3.855v58.786c0,3.313,2.687,6,6,6
		h25.012c3.313,0,6-2.687,6-6V120.03h3.855c3.314,0,6-2.687,6-6V70.158C188.681,54.519,175.958,41.796,160.32,41.796z
		 M176.681,108.03h-3.855c-3.313,0-6,2.687-6,6v58.786h-13.012V114.03c0-3.313-2.686-6-6-6h-3.855V70.158
		c0-9.021,7.34-16.361,16.361-16.361s16.361,7.34,16.361,16.361V108.03z"/>
	<path d="M160.32,39.874c10.717,0,19.436-8.719,19.436-19.436S171.038,1.001,160.32,1.001s-19.436,8.719-19.436,19.436
		S149.603,39.874,160.32,39.874z M160.32,13.001c4.1,0,7.436,3.336,7.436,7.436s-3.336,7.436-7.436,7.436s-7.436-3.336-7.436-7.436
		S156.22,13.001,160.32,13.001z"/>
	<path d="M18.937,45.827h28.558c3.313,0,6-2.687,6-6V20.279C53.495,9.097,44.397,0,33.215,0C22.034,0,12.937,9.097,12.937,20.279
		v19.548C12.937,43.141,15.623,45.827,18.937,45.827z M24.937,20.279c0-4.565,3.714-8.279,8.279-8.279
		c4.565,0,8.279,3.714,8.279,8.279v13.548H24.937V20.279z"/>
	<path d="M59.926,72.655c-0.946-14-12.679-24.966-26.71-24.966S7.451,58.655,6.505,72.655l-3.846,56.92
		c-0.112,1.658,0.468,3.288,1.603,4.501s2.722,1.903,4.383,1.903h7.347l3.151,46.19c0.215,3.148,2.831,5.592,5.986,5.592h16.174
		c3.155,0,5.771-2.444,5.986-5.592l3.151-46.19h7.347c1.662,0,3.249-0.689,4.383-1.903s1.715-2.844,1.603-4.502L59.926,72.655z
		 M15.064,123.98l3.414-50.516c0.522-7.725,6.996-13.775,14.738-13.775s14.216,6.051,14.738,13.775l3.414,50.516H15.064z
		 M35.698,175.762h-4.965L28.02,135.98h10.392L35.698,175.762z"/>
</g>
<g>
</g>
<g>
</g>
<g>
</g>
<g>
</g>
<g>
</g>
<g>
</g>
<g>
</g>
<g>
</g>
<g>
</g>
<g>
</g>
<g>
</g>
<g>
</g>
<g>
</g>
<g>
</g>
<g>
</g>
</svg>
