<?xml version="1.0" encoding="iso-8859-1"?>
<!-- Generator: Adobe Illustrator 18.0.0, SVG Export Plug-In . SVG Version: 6.00 Build 0)  -->
<!DOCTYPE svg PUBLIC "-//W3C//DTD SVG 1.1//EN" "http://www.w3.org/Graphics/SVG/1.1/DTD/svg11.dtd">
<svg version="1.1" id="Capa_1" xmlns="http://www.w3.org/2000/svg" xmlns:xlink="http://www.w3.org/1999/xlink" x="0px" y="0px"
	 viewBox="0 0 297 297" style="enable-background:new 0 0 297 297;" xml:space="preserve">
<path d="M73.756,228.309H18.408c-5.458,0-9.884,4.425-9.884,9.884v48.923c0,5.458,4.425,9.884,9.884,9.884h260.925
	c5.458,0,9.884-4.425,9.884-9.884v-146.77c0-5.458-4.425-9.884-9.884-9.884h-55.348v-78.08h54.606c5.458,0,9.884-4.425,9.884-9.884
	V9.884c0-5.458-4.425-9.884-9.884-9.884H202.76c-1.744,0-3.457,0.461-4.966,1.338L12.701,109.805
	c-3.044,1.769-4.918,5.025-4.918,8.546v38.303c0,3.539,1.892,6.807,4.961,8.571c1.524,0.875,3.224,1.313,4.922,1.313
	c1.721,0,3.442-0.449,4.98-1.346l51.109-29.813V228.309z M204.218,163.078h-45.464V85.795l45.464-26.521V163.078z M27.55,124.038
	L205.423,19.767h63.285v12.849h-55.348c-1.75,0-3.469,0.464-4.98,1.346L27.55,139.447V124.038z M138.987,195.694H93.523v-71.656
	c0-0.063-0.008-0.124-0.009-0.186l45.474-26.527V195.694z M93.523,215.461h55.348c5.458,0,9.884-4.425,9.884-9.884v-22.732h55.348
	c5.458,0,9.884-4.425,9.884-9.884V150.23h45.464v127.003H28.292v-29.156h55.348c5.458,0,9.884-4.425,9.884-9.884V215.461z"/>
<g>
</g>
<g>
</g>
<g>
</g>
<g>
</g>
<g>
</g>
<g>
</g>
<g>
</g>
<g>
</g>
<g>
</g>
<g>
</g>
<g>
</g>
<g>
</g>
<g>
</g>
<g>
</g>
<g>
</g>
</svg>
