<?xml version="1.0" encoding="iso-8859-1"?>
<!-- Generator: Adobe Illustrator 16.0.0, SVG Export Plug-In . SVG Version: 6.00 Build 0)  -->
<!DOCTYPE svg PUBLIC "-//W3C//DTD SVG 1.1//EN" "http://www.w3.org/Graphics/SVG/1.1/DTD/svg11.dtd">
<svg version="1.1" id="Capa_1" xmlns="http://www.w3.org/2000/svg" xmlns:xlink="http://www.w3.org/1999/xlink" x="0px" y="0px"
	 width="635.943px" height="635.943px" viewBox="0 0 635.943 635.943" style="enable-background:new 0 0 635.943 635.943;"
	 xml:space="preserve">
<g>
	<g>
		<path d="M601.362,545.136c0,16.259-13.507,29.378-30.262,29.378H64.318c-16.711,0-30.272-13.119-30.272-29.378V88.255
			c0-16.23,13.551-29.393,30.272-29.393h506.783c16.755,0,30.262,13.162,30.262,29.393V545.136L601.362,545.136z M602.024,24.982
			H33.904C15.175,24.982,0,39.929,0,58.381v519.176c0,18.447,15.175,33.404,33.904,33.404h568.12
			c18.729,0,33.919-14.977,33.919-33.404V58.396C635.943,39.929,620.754,24.982,602.024,24.982L602.024,24.982z"/>
		<path d="M183.525,94.41c28.061,0,50.815,22.755,50.815,50.815c0,28.06-22.755,50.815-50.815,50.815
			c-28.064,0-50.815-22.756-50.815-50.815C132.71,117.165,155.461,94.41,183.525,94.41L183.525,94.41z"/>
		<path d="M242.782,219.851H121.099c-19.609,0-35.519,14.917-35.519,33.516v104.748c0,16.347,12.535,30.02,29.047,32.897
			l-0.044,0.078c0,0,9.958,0.098,11.762,12.545c3.583,24.895,11.66,82.035,14.368,105.374c3.534,30.02,22.298,30.651,22.298,30.651
			s16.76,4.201,38.577,0c21.598-4.2,23.641-29.328,23.641-29.328l13.521-108.798c1.104-8.927,9.457-10.27,9.457-10.27v-0.097
			c17.032-2.49,30.156-16.357,30.156-33.034V253.376C278.354,234.778,262.392,219.851,242.782,219.851L242.782,219.851z"/>
		<path d="M541.519,249.604c-0.02,0-0.039-0.039-0.059-0.039l-83.417-83.465c0,0,0,0-0.019,0
			c-13.615-13.644-25.129-5.251-29.058-1.556l-1.536,1.532l-0.02,0.024L348.195,245.3c-28.94,28.94-3.968,35.553-0.389,36.34
			h193.712C541.577,281.66,567.464,275.524,541.519,249.604L541.519,249.604z"/>
		<path d="M543.93,355.139l-198.341-0.243c0,0,0,0-0.02,0c-27.467,0.038-11.533,19.915-3.637,28.259l3.637,3.646l83.534,83.777
			c3.501,3.335,16.667,13.906,31.604-0.982l83.241-83.076C573.882,356.665,544.222,355.158,543.93,355.139L543.93,355.139z"/>
	</g>
</g>
<g>
</g>
<g>
</g>
<g>
</g>
<g>
</g>
<g>
</g>
<g>
</g>
<g>
</g>
<g>
</g>
<g>
</g>
<g>
</g>
<g>
</g>
<g>
</g>
<g>
</g>
<g>
</g>
<g>
</g>
</svg>
