<?xml version="1.0" encoding="UTF-8" standalone="no"?>
<!-- Generator: Adobe Illustrator 16.0.0, SVG Export Plug-In . SVG Version: 6.00 Build 0)  -->

<svg
   xmlns:dc="http://purl.org/dc/elements/1.1/"
   xmlns:cc="http://creativecommons.org/ns#"
   xmlns:rdf="http://www.w3.org/1999/02/22-rdf-syntax-ns#"
   xmlns:svg="http://www.w3.org/2000/svg"
   xmlns="http://www.w3.org/2000/svg"
   xmlns:sodipodi="http://sodipodi.sourceforge.net/DTD/sodipodi-0.dtd"
   xmlns:inkscape="http://www.inkscape.org/namespaces/inkscape"
   version="1.1"
   id="Capa_1"
   x="0px"
   y="0px"
   width="100.00037"
   height="77.850922"
   viewBox="0 0 100.00036 77.850919"
   xml:space="preserve"
   inkscape:version="0.91 r13725"
   sodipodi:docname="wcf_acc.svg"><metadata
     id="metadata41"><rdf:RDF><cc:Work
         rdf:about=""><dc:format>image/svg+xml</dc:format><dc:type
           rdf:resource="http://purl.org/dc/dcmitype/StillImage" /><dc:title></dc:title></cc:Work></rdf:RDF></metadata><defs
     id="defs39" /><sodipodi:namedview
     pagecolor="#ffffff"
     bordercolor="#666666"
     borderopacity="1"
     objecttolerance="10"
     gridtolerance="10"
     guidetolerance="10"
     inkscape:pageopacity="0"
     inkscape:pageshadow="2"
     inkscape:window-width="1117"
     inkscape:window-height="716"
     id="namedview37"
     showgrid="false"
     fit-margin-top="0"
     fit-margin-left="0"
     fit-margin-right="0"
     fit-margin-bottom="0"
     inkscape:zoom="2.9672097"
     inkscape:cx="39.563541"
     inkscape:cy="66.055324"
     inkscape:window-x="192"
     inkscape:window-y="17"
     inkscape:window-maximized="0"
     inkscape:current-layer="Capa_1" /><g
     id="g7"
     transform="translate(-0.2049599,-1.0110474)" /><g
     id="g9"
     transform="translate(-0.2049599,-1.0110474)" /><g
     id="g11"
     transform="translate(-0.2049599,-1.0110474)" /><g
     id="g13"
     transform="translate(-0.2049599,-1.0110474)" /><g
     id="g15"
     transform="translate(-0.2049599,-1.0110474)" /><g
     id="g17"
     transform="translate(-0.2049599,-1.0110474)" /><g
     id="g19"
     transform="translate(-0.2049599,-1.0110474)" /><g
     id="g21"
     transform="translate(-0.2049599,-1.0110474)" /><g
     id="g23"
     transform="translate(-0.2049599,-1.0110474)" /><g
     id="g25"
     transform="translate(-0.2049599,-1.0110474)" /><g
     id="g27"
     transform="translate(-0.2049599,-1.0110474)" /><g
     id="g29"
     transform="translate(-0.2049599,-1.0110474)" /><g
     id="g31"
     transform="translate(-0.2049599,-1.0110474)" /><g
     id="g33"
     transform="translate(-0.2049599,-1.0110474)" /><g
     id="g35"
     transform="translate(-0.2049599,-1.0110474)" /><g
     id="g3541"
     transform="matrix(0.31541159,0,0,0.31541159,37.566849,5.580414)"><g
       id="g3497"><path
         id="path3499"
         d="m 127.75,183.153 c -10.629,10.63 -24.76,16.483 -39.793,16.483 -31.024,0 -56.265,-25.241 -56.265,-56.268 0,-15.034 5.852,-29.168 16.479,-39.796 2.929,-2.929 2.928,-7.678 -10e-4,-10.607 -2.929,-2.93 -7.678,-2.929 -10.607,10e-4 -13.459,13.461 -20.871,31.36 -20.871,50.401 0,39.297 31.969,71.268 71.265,71.268 19.039,0 36.938,-7.414 50.4,-20.878 2.929,-2.929 2.928,-7.678 -0.001,-10.606 -2.929,-2.926 -7.678,-2.927 -10.606,0.002 z"
         inkscape:connector-curvature="0" /><path
         id="path3501"
         d="m 190.444,166.706 -21.335,0 -13.209,-36.649 c -1.072,-2.975 -3.894,-4.957 -7.056,-4.957 l -55.612,0 0,-33.676 51.648,0 c 4.142,0 7.5,-3.357 7.5,-7.5 0,-4.143 -3.358,-7.5 -7.5,-7.5 l -51.648,0 0,-23.145 c 0,-4.143 -3.358,-7.5 -7.5,-7.5 -4.142,0 -7.5,3.357 -7.5,7.5 l 0,79.32 c 0,4.143 3.358,7.5 7.5,7.5 l 57.842,0 13.209,36.649 c 1.072,2.975 3.894,4.957 7.056,4.957 l 26.604,0 c 4.142,0 7.5,-3.357 7.5,-7.5 0,-4.143 -3.356,-7.499 -7.499,-7.499 z"
         inkscape:connector-curvature="0" /><path
         id="path3503"
         d="m 86.015,36.438 c 10.063,0 18.221,-8.154 18.221,-18.224 C 104.235,8.161 96.078,0 86.015,0 75.952,0 67.796,8.161 67.796,18.215 c 0,10.069 8.156,18.223 18.219,18.223 z"
         inkscape:connector-curvature="0" /></g><g
       id="g3505" /><g
       id="g3507" /><g
       id="g3509" /><g
       id="g3511" /><g
       id="g3513" /><g
       id="g3515" /><g
       id="g3517" /><g
       id="g3519" /><g
       id="g3521" /><g
       id="g3523" /><g
       id="g3525" /><g
       id="g3527" /><g
       id="g3529" /><g
       id="g3531" /><g
       id="g3533" /></g><rect
     style="fill:#000000;fill-opacity:1;fill-rule:evenodd;stroke:none;stroke-width:1px;stroke-linecap:butt;stroke-linejoin:miter;stroke-opacity:1"
     id="rect4382"
     width="2.6961358"
     height="77.850922"
     x="34.844803"
     y="0" /><path
     inkscape:connector-curvature="0"
     id="path5-8"
     d="m 15.107,50.50755 0,19.387 c 0,0.762 -0.251,1.394 -0.723,1.85 -0.471,0.476 -1.087,0.703 -1.843,0.703 -0.764,0 -1.416,-0.228 -1.921,-0.703 -0.541,-0.456 -0.7900005,-1.088 -0.7900005,-1.85 l 0,-19.387 -7.2639996,0 7.5580001,-25.522 -1.3000001,0 c -0.829,2.861 -1.527,5.161999 -2.074,6.987999 -0.492,1.817 -1.038,3.542 -1.512,5.202 -0.539,1.639 -0.901,2.677 -0.937,3.031 -0.329,1.083 -1.046,1.608 -2.1699999,1.608 l -0.572,-0.138 c -1.048,-0.388 -1.559,-1.066 -1.559,-2.032 0,-0.264 0.037,-0.481 0.143,-0.699 0.075,-0.187 0.292,-0.828 0.546,-1.916 0.292,-1.079 0.684,-2.421 1.157,-3.981 0.4709999,-1.585 0.9809999,-3.301 1.5149999,-5.141999 0.546,-1.851 1.046,-3.632 1.66,-5.349 0.362,-1.315 1.157,-2.514 2.387,-3.55 1.225,-1.074 2.4989996,-1.563 3.8290001,-1.563 l 8.891,0 c 1.375,0 2.711,0.489 3.904001,1.563 1.16,1.041 1.994,2.234 2.459,3.55 0.498,1.717 1.007,3.498 1.51,5.349 0.515,1.840999 1.056,3.556999 1.491,5.141999 0.461,1.561 0.865,2.902 1.149,3.981 0.288,1.088 0.474,1.729 0.575,1.916 l 0.142,0.572 c 0,1.168 -0.546,1.851 -1.592,2.151 l -0.533,0.146 c -1.152,0 -1.877,-0.526 -2.165,-1.608 -0.08,-0.354 -0.404,-1.393 -0.831,-3.031 -0.505,-1.66 -1.02,-3.384 -1.597,-5.202 -0.578,-1.82 -1.256,-4.126999 -2.084,-6.992999 l -1.305001,0 7.547001,25.528 -7.148001,0 0,19.387 c 0,0.762 -0.217,1.394 -0.795,1.85 -0.510001,0.476 -1.124,0.703 -1.877001,0.703 -0.795,0 -1.38,-0.228 -1.877,-0.703 -0.471,-0.456 -0.684,-1.088 -0.684,-1.85 l 0,-19.388 z m 0.715,-34.659 c 1.522,0 2.827,-0.5 3.839,-1.543 1.043,-1.067 1.589,-2.393 1.589,-3.993 0,-1.522 -0.546,-2.8270004 -1.589,-3.9040004 -1.007001,-1.108 -2.317,-1.66 -3.839,-1.66 -1.621,0 -2.965,0.552 -4.083,1.66 -1.083,1.072 -1.616,2.3820004 -1.616,3.9040004 0,1.6 0.533,2.925 1.621,3.993 1.119,1.043 2.462,1.543 4.078,1.543 z"
     style="fill:#010002"
     sodipodi:nodetypes="cscscscccccccccsccccccssccccccccccccccccscscsccscscscscs" /></svg>