<?xml version="1.0" encoding="UTF-8" standalone="no"?>
<!-- Generator: Adobe Illustrator 16.0.0, SVG Export Plug-In . SVG Version: 6.00 Build 0)  -->

<svg
   xmlns:dc="http://purl.org/dc/elements/1.1/"
   xmlns:cc="http://creativecommons.org/ns#"
   xmlns:rdf="http://www.w3.org/1999/02/22-rdf-syntax-ns#"
   xmlns:svg="http://www.w3.org/2000/svg"
   xmlns="http://www.w3.org/2000/svg"
   xmlns:sodipodi="http://sodipodi.sourceforge.net/DTD/sodipodi-0.dtd"
   xmlns:inkscape="http://www.inkscape.org/namespaces/inkscape"
   version="1.1"
   id="Capa_1"
   x="0px"
   y="0px"
   width="97.010719"
   height="77.850922"
   viewBox="0 0 97.010716 77.850919"
   xml:space="preserve"
   inkscape:version="0.91 r13725"
   sodipodi:docname="wcm_acc.svg"><metadata
     id="metadata41"><rdf:RDF><cc:Work
         rdf:about=""><dc:format>image/svg+xml</dc:format><dc:type
           rdf:resource="http://purl.org/dc/dcmitype/StillImage" /><dc:title></dc:title></cc:Work></rdf:RDF></metadata><defs
     id="defs39" /><sodipodi:namedview
     pagecolor="#ffffff"
     bordercolor="#666666"
     borderopacity="1"
     objecttolerance="10"
     gridtolerance="10"
     guidetolerance="10"
     inkscape:pageopacity="0"
     inkscape:pageshadow="2"
     inkscape:window-width="1117"
     inkscape:window-height="716"
     id="namedview37"
     showgrid="false"
     fit-margin-top="0"
     fit-margin-left="0"
     fit-margin-right="0"
     fit-margin-bottom="0"
     inkscape:zoom="2.9672097"
     inkscape:cx="36.573898"
     inkscape:cy="66.055324"
     inkscape:window-x="192"
     inkscape:window-y="17"
     inkscape:window-maximized="0"
     inkscape:current-layer="Capa_1" /><path
     inkscape:connector-curvature="0"
     id="path5"
     d="m 7.1620056,16.984004 c -1.9470003,0 -3.6150003,0.72 -5.0230003,2.11 -1.4130003,1.453 -2.1390003000001,3.143 -2.1390003000001,5.025 l 0,17.399 c 0,0.652 0.2230000000001,1.242 0.7260000000001,1.719 0.4660003,0.471 1.0460003,0.684 1.7030003,0.684 0.756,0 1.336,-0.213 1.802,-0.684 0.404,-0.477 0.617,-1.066 0.617,-1.719 l 0,-15.558 1.258,0 0,43.074 c 0,0.829 0.362,1.596 1.0510003,2.186 0.647,0.652 1.403,0.932 2.273,0.932 0.9420004,0 1.6980004,-0.279 2.3140004,-0.932 0.652,-0.59 0.948,-1.356 0.948,-2.186 l 0,-24.969 1.408,0 0,24.969 c 0,0.829 0.326,1.596 0.938,2.186 0.616,0.652 1.413,0.932 2.387,0.932 0.828,0 1.554,-0.279 2.206,-0.932 0.611,-0.59 0.891,-1.356 0.891,-2.186 l 0,-43.074 1.315,0 0,15.558 c 0,0.652 0.207,1.242 0.642,1.719 0.518,0.471 1.118,0.684 1.771,0.684 0.766,0 1.346,-0.213 1.781,-0.684 0.393,-0.477 0.642,-1.066 0.642,-1.719 l 0,-17.398 c 0,-1.877 -0.684,-3.573 -2.097,-5.02 -1.378,-1.396 -3.029,-2.11 -5.055,-2.11 l -12.3590004,0 z m 6.2130004,-1.431 c 1.518,0 2.858,-0.5 3.936,-1.543 1.077,-1.072 1.626,-2.397 1.626,-3.993 0,-1.5220006 -0.554,-2.8270006 -1.631,-3.9040006 -1.082,-1.108 -2.418,-1.66 -3.931,-1.66 -1.595,0 -2.936,0.552 -3.9450004,1.66 -1.077,1.077 -1.584,2.382 -1.584,3.9040006 0,1.6 0.507,2.925 1.584,3.993 1.0150004,1.043 2.3560004,1.543 3.9450004,1.543 z"
     style="fill:#000000;fill-opacity:1;stroke:#000000;stroke-width:0;stroke-miterlimit:4;stroke-dasharray:none;stroke-opacity:1"
     sodipodi:nodetypes="ccsscscsccscscsccscscsccscscsscsccscscscscs" /><g
     id="g7"
     transform="translate(-3.1946034,-1.0110474)" /><g
     id="g9"
     transform="translate(-3.1946034,-1.0110474)" /><g
     id="g11"
     transform="translate(-3.1946034,-1.0110474)" /><g
     id="g13"
     transform="translate(-3.1946034,-1.0110474)" /><g
     id="g15"
     transform="translate(-3.1946034,-1.0110474)" /><g
     id="g17"
     transform="translate(-3.1946034,-1.0110474)" /><g
     id="g19"
     transform="translate(-3.1946034,-1.0110474)" /><g
     id="g21"
     transform="translate(-3.1946034,-1.0110474)" /><g
     id="g23"
     transform="translate(-3.1946034,-1.0110474)" /><g
     id="g25"
     transform="translate(-3.1946034,-1.0110474)" /><g
     id="g27"
     transform="translate(-3.1946034,-1.0110474)" /><g
     id="g29"
     transform="translate(-3.1946034,-1.0110474)" /><g
     id="g31"
     transform="translate(-3.1946034,-1.0110474)" /><g
     id="g33"
     transform="translate(-3.1946034,-1.0110474)" /><g
     id="g35"
     transform="translate(-3.1946034,-1.0110474)" /><g
     id="g3541"
     transform="matrix(0.31541159,0,0,0.31541159,34.577206,5.580414)"><g
       id="g3497"><path
         id="path3499"
         d="m 127.75,183.153 c -10.629,10.63 -24.76,16.483 -39.793,16.483 -31.024,0 -56.265,-25.241 -56.265,-56.268 0,-15.034 5.852,-29.168 16.479,-39.796 2.929,-2.929 2.928,-7.678 -10e-4,-10.607 -2.929,-2.93 -7.678,-2.929 -10.607,10e-4 -13.459,13.461 -20.871,31.36 -20.871,50.401 0,39.297 31.969,71.268 71.265,71.268 19.039,0 36.938,-7.414 50.4,-20.878 2.929,-2.929 2.928,-7.678 -0.001,-10.606 -2.929,-2.926 -7.678,-2.927 -10.606,0.002 z"
         inkscape:connector-curvature="0" /><path
         id="path3501"
         d="m 190.444,166.706 -21.335,0 -13.209,-36.649 c -1.072,-2.975 -3.894,-4.957 -7.056,-4.957 l -55.612,0 0,-33.676 51.648,0 c 4.142,0 7.5,-3.357 7.5,-7.5 0,-4.143 -3.358,-7.5 -7.5,-7.5 l -51.648,0 0,-23.145 c 0,-4.143 -3.358,-7.5 -7.5,-7.5 -4.142,0 -7.5,3.357 -7.5,7.5 l 0,79.32 c 0,4.143 3.358,7.5 7.5,7.5 l 57.842,0 13.209,36.649 c 1.072,2.975 3.894,4.957 7.056,4.957 l 26.604,0 c 4.142,0 7.5,-3.357 7.5,-7.5 0,-4.143 -3.356,-7.499 -7.499,-7.499 z"
         inkscape:connector-curvature="0" /><path
         id="path3503"
         d="m 86.015,36.438 c 10.063,0 18.221,-8.154 18.221,-18.224 C 104.235,8.161 96.078,0 86.015,0 75.952,0 67.796,8.161 67.796,18.215 c 0,10.069 8.156,18.223 18.219,18.223 z"
         inkscape:connector-curvature="0" /></g><g
       id="g3505" /><g
       id="g3507" /><g
       id="g3509" /><g
       id="g3511" /><g
       id="g3513" /><g
       id="g3515" /><g
       id="g3517" /><g
       id="g3519" /><g
       id="g3521" /><g
       id="g3523" /><g
       id="g3525" /><g
       id="g3527" /><g
       id="g3529" /><g
       id="g3531" /><g
       id="g3533" /></g><rect
     style="fill:#000000;fill-opacity:1;fill-rule:evenodd;stroke:none;stroke-width:1px;stroke-linecap:butt;stroke-linejoin:miter;stroke-opacity:1"
     id="rect4382"
     width="2.6961358"
     height="77.850922"
     x="31.85516"
     y="0" /></svg>